<svg xmlns="http://www.w3.org/2000/svg" width="200" height="200" viewBox="0 0 200 200">
  <!-- Background -->
  <rect width="200" height="200" fill="#000000"/>
  
  <!-- Horizontal stripes (weft threads) -->
  <g>
    <!-- Row 1 -->
    <rect x="0" y="0" width="40" height="20" fill="#1a5c1a" opacity="0.95"/>
    <rect x="40" y="0" width="40" height="20" fill="#1a5c1a" opacity="0.9"/>
    <rect x="80" y="0" width="40" height="20" fill="#1a5c1a" opacity="0.95"/>
    <rect x="120" y="0" width="40" height="20" fill="#1a5c1a" opacity="0.9"/>
    <rect x="160" y="0" width="40" height="20" fill="#1a5c1a" opacity="0.95"/>
    
    <!-- Row 2 -->
    <rect x="0" y="40" width="40" height="20" fill="#2a7a2a" opacity="0.95"/>
    <rect x="40" y="40" width="40" height="20" fill="#2a7a2a" opacity="0.9"/>
    <rect x="80" y="40" width="40" height="20" fill="#2a7a2a" opacity="0.95"/>
    <rect x="120" y="40" width="40" height="20" fill="#2a7a2a" opacity="0.9"/>
    <rect x="160" y="40" width="40" height="20" fill="#2a7a2a" opacity="0.95"/>
    
    <!-- Row 3 -->
    <rect x="0" y="80" width="40" height="20" fill="#3a8a3a" opacity="0.95"/>
    <rect x="40" y="80" width="40" height="20" fill="#3a8a3a" opacity="0.9"/>
    <rect x="80" y="80" width="40" height="20" fill="#3a8a3a" opacity="0.95"/>
    <rect x="120" y="80" width="40" height="20" fill="#3a8a3a" opacity="0.9"/>
    <rect x="160" y="80" width="40" height="20" fill="#3a8a3a" opacity="0.95"/>
    
    <!-- Row 4 -->
    <rect x="0" y="120" width="40" height="20" fill="#4a9a4a" opacity="0.95"/>
    <rect x="40" y="120" width="40" height="20" fill="#4a9a4a" opacity="0.9"/>
    <rect x="80" y="120" width="40" height="20" fill="#4a9a4a" opacity="0.95"/>
    <rect x="120" y="120" width="40" height="20" fill="#4a9a4a" opacity="0.9"/>
    <rect x="160" y="120" width="40" height="20" fill="#4a9a4a" opacity="0.95"/>
    
    <!-- Row 5 -->
    <rect x="0" y="160" width="40" height="20" fill="#1a5c1a" opacity="0.95"/>
    <rect x="40" y="160" width="40" height="20" fill="#1a5c1a" opacity="0.9"/>
    <rect x="80" y="160" width="40" height="20" fill="#1a5c1a" opacity="0.95"/>
    <rect x="120" y="160" width="40" height="20" fill="#1a5c1a" opacity="0.9"/>
    <rect x="160" y="160" width="40" height="20" fill="#1a5c1a" opacity="0.95"/>
  </g>
  
  <!-- Vertical stripes (warp threads) -->
  <g>
    <!-- Column 1 -->
    <rect x="0" y="20" width="20" height="20" fill="#1a5c1a" opacity="0.85"/>
    <rect x="0" y="60" width="20" height="20" fill="#1a5c1a" opacity="0.85"/>
    <rect x="0" y="100" width="20" height="20" fill="#1a5c1a" opacity="0.85"/>
    <rect x="0" y="140" width="20" height="20" fill="#1a5c1a" opacity="0.85"/>
    <rect x="0" y="180" width="20" height="20" fill="#1a5c1a" opacity="0.85"/>
    
    <!-- Column 2 -->
    <rect x="40" y="20" width="20" height="20" fill="#2a7a2a" opacity="0.85"/>
    <rect x="40" y="60" width="20" height="20" fill="#2a7a2a" opacity="0.85"/>
    <rect x="40" y="100" width="20" height="20" fill="#2a7a2a" opacity="0.85"/>
    <rect x="40" y="140" width="20" height="20" fill="#2a7a2a" opacity="0.85"/>
    <rect x="40" y="180" width="20" height="20" fill="#2a7a2a" opacity="0.85"/>
    
    <!-- Column 3 -->
    <rect x="80" y="20" width="20" height="20" fill="#3a8a3a" opacity="0.85"/>
    <rect x="80" y="60" width="20" height="20" fill="#3a8a3a" opacity="0.85"/>
    <rect x="80" y="100" width="20" height="20" fill="#3a8a3a" opacity="0.85"/>
    <rect x="80" y="140" width="20" height="20" fill="#3a8a3a" opacity="0.85"/>
    <rect x="80" y="180" width="20" height="20" fill="#3a8a3a" opacity="0.85"/>
    
    <!-- Column 4 -->
    <rect x="120" y="20" width="20" height="20" fill="#4a9a4a" opacity="0.85"/>
    <rect x="120" y="60" width="20" height="20" fill="#4a9a4a" opacity="0.85"/>
    <rect x="120" y="100" width="20" height="20" fill="#4a9a4a" opacity="0.85"/>
    <rect x="120" y="140" width="20" height="20" fill="#4a9a4a" opacity="0.85"/>
    <rect x="120" y="180" width="20" height="20" fill="#4a9a4a" opacity="0.85"/>
    
    <!-- Column 5 -->
    <rect x="160" y="20" width="20" height="20" fill="#1a5c1a" opacity="0.85"/>
    <rect x="160" y="60" width="20" height="20" fill="#1a5c1a" opacity="0.85"/>
    <rect x="160" y="100" width="20" height="20" fill="#1a5c1a" opacity="0.85"/>
    <rect x="160" y="140" width="20" height="20" fill="#1a5c1a" opacity="0.85"/>
    <rect x="160" y="180" width="20" height="20" fill="#1a5c1a" opacity="0.85"/>
  </g>
  
  <!-- Texture overlay -->
  <rect width="200" height="200" fill="url(#grain)" opacity="0.1"/>
  
  <!-- Grain texture pattern -->
  <defs>
    <pattern id="grain" patternUnits="userSpaceOnUse" width="100" height="100" patternTransform="rotate(45)">
      <rect width="100" height="100" fill="#ffffff" opacity="0.05"/>
      <rect x="0" y="0" width="50" height="50" fill="#ffffff" opacity="0.05"/>
      <rect x="50" y="50" width="50" height="50" fill="#ffffff" opacity="0.05"/>
    </pattern>
  </defs>
</svg>