<svg width="100" height="100" viewBox="0 0 100 100" fill="none" xmlns="http://www.w3.org/2000/svg">
  <!-- Base heart shape -->
  <path d="M50 90C47.5 90 45.1 89.1 43.2 87.3L15.9 62.2C6.3 53.2 6.3 38.5 15.9 29.5C20.5 25.2 26.6 22.8 33 22.8C39.4 22.8 45.5 25.2 50.1 29.5C54.7 25.2 60.8 22.8 67.2 22.8C73.6 22.8 79.7 25.2 84.3 29.5C93.9 38.5 93.9 53.2 84.3 62.2L57 87.3C55.1 89.1 52.6 90 50.1 90H50Z" fill="#A67C52" opacity="0.1"/>
  
  <!-- Woven texture background -->
  <g opacity="0.9">
    <!-- Horizontal threads -->
    <path d="M25 35 C 75 35, 75 35, 75 35" stroke="#E57373" stroke-width="2" stroke-linecap="round" />
    <path d="M20 40 C 80 40, 80 40, 80 40" stroke="#FFB74D" stroke-width="2" stroke-linecap="round" />
    <path d="M18 45 C 82 45, 82 45, 82 45" stroke="#FFF176" stroke-width="2" stroke-linecap="round" />
    <path d="M16 50 C 84 50, 84 50, 84 50" stroke="#AED581" stroke-width="2" stroke-linecap="round" />
    <path d="M16 55 C 84 55, 84 55, 84 55" stroke="#4FC3F7" stroke-width="2" stroke-linecap="round" />
    <path d="M18 60 C 82 60, 82 60, 82 60" stroke="#9575CD" stroke-width="2" stroke-linecap="round" />
    <path d="M20 65 C 80 65, 80 65, 80 65" stroke="#F06292" stroke-width="2" stroke-linecap="round" />
    <path d="M25 70 C 75 70, 75 70, 75 70" stroke="#FFD54F" stroke-width="2" stroke-linecap="round" />
    <path d="M30 75 C 70 75, 70 75, 70 75" stroke="#81C784" stroke-width="2" stroke-linecap="round" />
  </g>
  
  <!-- Vertical threads -->
  <g opacity="0.9">
    <path d="M30 30 C 30 75, 30 75, 30 75" stroke="#EF5350" stroke-width="2" stroke-linecap="round" />
    <path d="M35 28 C 35 77, 35 77, 35 77" stroke="#FF9800" stroke-width="2" stroke-linecap="round" />
    <path d="M40 26 C 40 79, 40 79, 40 79" stroke="#FFEB3B" stroke-width="2" stroke-linecap="round" />
    <path d="M45 25 C 45 80, 45 80, 45 80" stroke="#8BC34A" stroke-width="2" stroke-linecap="round" />
    <path d="M50 25 C 50 80, 50 80, 50 80" stroke="#03A9F4" stroke-width="2" stroke-linecap="round" />
    <path d="M55 25 C 55 80, 55 80, 55 80" stroke="#673AB7" stroke-width="2" stroke-linecap="round" />
    <path d="M60 26 C 60 79, 60 79, 60 79" stroke="#E91E63" stroke-width="2" stroke-linecap="round" />
    <path d="M65 28 C 65 77, 65 77, 65 77" stroke="#FFC107" stroke-width="2" stroke-linecap="round" />
    <path d="M70 30 C 70 75, 70 75, 70 75" stroke="#4CAF50" stroke-width="2" stroke-linecap="round" />
  </g>
  
  <!-- Heart outline to define the shape -->
  <path d="M50 85C48 85 46.1 84.3 44.6 82.9L21.5 61.6C13.5 54.1 13.5 41.9 21.5 34.4C25.3 30.9 30.3 28.9 35.5 28.9C40.7 28.9 45.7 30.9 49.5 34.4C53.3 30.9 58.3 28.9 63.5 28.9C68.7 28.9 73.7 30.9 77.5 34.4C85.5 41.9 85.5 54.1 77.5 61.6L54.4 82.9C52.9 84.3 51 85 49 85H50Z" stroke="#C1272D" stroke-width="1.5" fill="none" opacity="0.7"/>
  
  <!-- Decorative knots at thread intersections -->
  <circle cx="30" cy="35" r="1.5" fill="#D32F2F" />
  <circle cx="30" cy="45" r="1.5" fill="#D32F2F" />
  <circle cx="30" cy="55" r="1.5" fill="#D32F2F" />
  <circle cx="30" cy="65" r="1.5" fill="#D32F2F" />
  <circle cx="40" cy="35" r="1.5" fill="#FF9800" />
  <circle cx="40" cy="45" r="1.5" fill="#FF9800" />
  <circle cx="40" cy="55" r="1.5" fill="#FF9800" />
  <circle cx="40" cy="65" r="1.5" fill="#FF9800" />
  <circle cx="50" cy="35" r="1.5" fill="#FFEB3B" />
  <circle cx="50" cy="45" r="1.5" fill="#FFEB3B" />
  <circle cx="50" cy="55" r="1.5" fill="#FFEB3B" />
  <circle cx="50" cy="65" r="1.5" fill="#FFEB3B" />
  <circle cx="60" cy="35" r="1.5" fill="#4CAF50" />
  <circle cx="60" cy="45" r="1.5" fill="#4CAF50" />
  <circle cx="60" cy="55" r="1.5" fill="#4CAF50" />
  <circle cx="60" cy="65" r="1.5" fill="#4CAF50" />
  <circle cx="70" cy="35" r="1.5" fill="#2196F3" />
  <circle cx="70" cy="45" r="1.5" fill="#2196F3" />
  <circle cx="70" cy="55" r="1.5" fill="#2196F3" />
  <circle cx="70" cy="65" r="1.5" fill="#2196F3" />
</svg>