<svg width="100" height="100" viewBox="0 0 100 100" fill="none" xmlns="http://www.w3.org/2000/svg">
  <path d="M50 90C47.5 90 45.1 89.1 43.2 87.3L15.9 62.2C6.3 53.2 6.3 38.5 15.9 29.5C20.5 25.2 26.6 22.8 33 22.8C39.4 22.8 45.5 25.2 50.1 29.5C54.7 25.2 60.8 22.8 67.2 22.8C73.6 22.8 79.7 25.2 84.3 29.5C93.9 38.5 93.9 53.2 84.3 62.2L57 87.3C55.1 89.1 52.6 90 50.1 90H50Z" fill="#A67C52"/>
  <path d="M50 85C48 85 46.1 84.3 44.6 82.9L21.5 61.6C13.5 54.1 13.5 41.9 21.5 34.4C25.3 30.9 30.3 28.9 35.5 28.9C40.7 28.9 45.7 30.9 49.5 34.4C53.3 30.9 58.3 28.9 63.5 28.9C68.7 28.9 73.7 30.9 77.5 34.4C85.5 41.9 85.5 54.1 77.5 61.6L54.4 82.9C52.9 84.3 51 85 49 85H50Z" fill="#C1272D"/>
</svg>